<?xml version="1.0" standalone="no"?>
<!DOCTYPE svg PUBLIC "-//W3C//DTD SVG 20010904//EN"
 "http://www.w3.org/TR/2001/REC-SVG-20010904/DTD/svg10.dtd">
<svg version="1.0" xmlns="http://www.w3.org/2000/svg"
 width="1080.000000pt" height="1080.000000pt" viewBox="0 0 1080.000000 1080.000000"
 preserveAspectRatio="xMidYMid meet">

<g transform="translate(0.000000,1080.000000) scale(0.100000,-0.100000)"
fill="#000000" stroke="none">
<path d="M3726 5823 c-483 -1451 -881 -2644 -884 -2650 -3 -10 118 -13 585
-13 l588 0 52 158 c29 86 109 331 178 545 l126 387 1032 0 1032 0 57 -172 c31
-95 111 -341 178 -545 l122 -373 590 0 c468 0 589 3 586 13 -3 6 -401 1199
-884 2650 l-879 2637 -800 0 -800 0 -879 -2637z m1833 1175 c97 -318 560
-1736 608 -1865 4 -10 -152 -13 -761 -13 -421 0 -766 3 -766 8 0 4 95 291 210
637 116 347 276 842 356 1100 80 259 152 491 160 518 13 37 20 47 38 47 21 0
32 -31 155 -432z"/>
</g>
</svg>
